<svg xmlns="http://www.w3.org/2000/svg" xmlns:xlink="http://www.w3.org/1999/xlink" version="1.1" x="0px" y="0px" viewBox="0 0 100 125" enable-background="new 0 0 100 100" xml:space="preserve"><g><path d="M59.463,37.15c0-5.327-4.234-9.646-9.453-9.646c-5.221,0-9.451,4.319-9.451,9.646c0,5.323,4.23,9.643,9.451,9.643   C55.229,46.793,59.463,42.474,59.463,37.15z"/><path d="M49.998,94.999c1.342,0,2.693-0.548,3.717-1.649c0.275-0.299,6.941-7.475,13.678-17.587   c9.355-14.029,14.1-26.482,14.1-37.013c0-18.609-14.129-33.749-31.494-33.749c-17.363,0-31.49,15.14-31.49,33.749   c0,10.53,4.744,22.983,14.1,37.021c6.736,10.104,13.4,17.279,13.684,17.584C47.312,94.451,48.66,94.999,49.998,94.999z    M31.082,37.159c0-10.663,8.467-19.307,18.914-19.307c10.445,0,18.914,8.644,18.914,19.307c0,10.662-8.469,19.306-18.914,19.306   C39.549,56.465,31.082,47.821,31.082,37.159z"/></g></svg>